<svg id="Layer_21" data-name="Layer 21" xmlns="http://www.w3.org/2000/svg" viewBox="0 0 356.35 356.35"><title>logo-no-text</title><path d="M867.69-40.9a178.17,178.17,0,1,0,178.18,178.17A178.17,178.17,0,0,0,867.69-40.9ZM726,64.15s6.49-9.09,54.56-20.78c0,0,3.89-1.3,3.89,6.49a2.6,2.6,0,1,0,5.2,0s0-6.49,2.6-6.49c0,0,16.88-1.3,55.85,18.18a119.4,119.4,0,0,1,6.5,23.38s1.3,3.9-1.3,3.9c-79.24-16.89-128.6-6.49-128.6-6.49-2.6,0-2.6-1.3-2.6-1.3A47.42,47.42,0,0,1,726,64.15Zm-3.9,53.26L698.69,96.63c-2.6-2.6,0-3.9,0-3.9,27.28-13,92.23-9.09,92.23-9.09,20.78,0,55.86,7.79,55.86,7.79,9.09,1.3,10.39,7.79,10.39,7.79,2.6,6.5,0,15.59,0,15.59-2.6,3.9-7.8,2.6-7.8,2.6-77.94-7.79-124.7,2.6-124.7,2.6C723.37,120,722.07,117.41,722.07,117.41Zm121.71,9.3c-1.76-2.74-8.7-6.7-8.7-6.7l-.57-.24L839,120S842.56,120,843.78,126.71Zm10.79,34.87s0,5.19-5.2,0c0,0-2.59-3.9-2.59,0v26a4.59,4.59,0,0,1-1.3,5.19s-23.39,29.88-33.78,36.37c0,0-1.3,2.6-11.69,3.9,0,0-6.49,0-7.79-1.3a1.8,1.8,0,0,0-2.6,0s-1.3,1.3-6.5,1.3a18,18,0,0,1-11.69-5.19s-28.58-28.58-31.17-36.38c0,0-1.3-1.3-1.3-6.49V160.28s0-3.9-2.6,0c0,0,0,3.89-2.6,3.89,0,0-2.6,0-2.6-3.89a84.17,84.17,0,0,1-2.59-20.79s-1.3-2.6,2.59-2.6c0,0,2.6,0,2.6,3.9,0,0,0,6.5,3.9,10.39,0,0,2.6,1.3,2.6-3.89V122.61s4.18-.91,13-1.85c-2.5,1.53-7.84,5-7.84,7a56.63,56.63,0,0,1,32.48-2.6s3.89,1.3,5.19,0c0,0-6.49-2.59-6.49-3.89a22.41,22.41,0,0,0-4.43-2c11.8-.58,27-.84,46-.26a23.54,23.54,0,0,0-5.23,2.22c0,1.3-6.49,3.89-6.49,3.89,1.3,1.3,5.19,0,5.19,0a56.94,56.94,0,0,1,32.23,2.5,29.09,29.09,0,0,1,.25,4v13s0,2.6,3.89,2.6,3.9-2.6,3.9-2.6v-5.2s1.3-7.79,6.5-2.6C858.47,136.89,859.77,151.18,854.57,161.58Zm25-80.46a109.48,109.48,0,0,1,6.49-22.21C925,40.4,941.8,41.63,941.8,41.63c2.6,0,2.6,6.17,2.6,6.17A2.5,2.5,0,0,0,947,50.27a2.46,2.46,0,0,0,2.59-2.47c0-7.4,3.89-6.17,3.89-6.17,48,11.11,54.46,19.75,54.46,19.75a43.21,43.21,0,0,1,3.89,16s0,1.24-2.59,1.24c0,0-49.27-9.88-128.37,6.17C878.27,84.83,879.56,81.12,879.56,81.12Zm130.56,62.16c-1.08,4.55-4.6,14.83-4.6,14.83v12.5c-.49,9.15-6.12,8.66-6.12,8.66a6.05,6.05,0,0,1-5.84-3.41c-1.25-2.32-2.6-1.08-2.6-1.08v8.07s-.6,10-8.39,12.5S964.87,220,964.87,220c-3.46,10.39-10.85.65-10.85.65-4.14-5.84-1.06-7.58-1.06-7.58,2.39-1.73,0-3.46,0-3.46H930c-3,0-.64,2.81-.64,2.81,2.38.87,2.38,4.55,2.38,4.55-2,6.5-6.93,8-6.93,8-6.5,2.6-8.88-9.74-8.88-9.74-4.11-15.16-13.64-18.62-13.64-18.62-5-1.3-5.63-4.33-5.63-4.33-3.46-1.3-3.89-13.52-3.89-13.52-1.09-6.16-2.6-4-2.6-4-.43,3.68-4.42,3.9-4.42,3.9-8.1,1.52-7.92-11.69-7.92-11.69,1.95-3,0-12.78,0-12.78a31.87,31.87,0,0,1-5.63-15.58c1.51-7.58,10.17-6.93,10.17-6.93,6.28.43,8.7,6.93,8.7,6.93V125.85c-.61-7.36,2.56-10,2.56-10a32.8,32.8,0,0,1,11.85-2.64,21,21,0,0,0-10.33,8.11,20.15,20.15,0,0,0-3,14.24s7.57-11.26,25.33-8.45c0,0,10.82,1.52,17.75,2.82L938,116.11s-3.91.14-5.63-1.08c0,0-1.39-.59-3.64-1.28l14.24.41,17,.14a43.09,43.09,0,0,0-4.85,1.33c-1.79,1.11-5.68.75-5.68.75l2,14c7-.89,17.89-1.77,17.89-1.77,14.07-1.4,21.34,5.53,23.81,8.55.12.36.28.53.45.58.36.48.54.78.54.78.07-.36.12-.7.18-1a2.87,2.87,0,0,0,.35-.36,4.5,4.5,0,0,1,2-4s5-2.39,9.85,0S1011.2,138.73,1010.12,143.28ZM993,118.93v7.4a15.21,15.21,0,0,0-1.11-2.21,21.27,21.27,0,0,0-12.43-9.66l2.93,0C993.23,115.57,993,118.93,993,118.93Zm18.8-7s-1.29,2.47-2.59,2.47c0,0-46.68-9.88-124.48-2.47,0,0-5.19,1.23-7.78-2.47,0,0-2.59-8.64,0-14.81,0,0,1.3-6.17,10.37-7.41,0,0,35-7.4,55.76-7.4,0,0,64.83-3.7,92.06,8.64,0,0,2.6,1.23,0,3.7Z" transform="translate(-689.52 40.9)"/><circle cx="768.83" cy="133" r="5.2" transform="translate(-699.51 221.1) rotate(-13.28)"/><circle cx="129.98" cy="173.9" r="5.2"/><path d="M826,166.77l-18.18-3.9s-6.5-1.29-6.5-5.19c0,0-3.9,2.6-5.2,5.19,0,0-2.59,3.9,1.3,6.5,0,0,6.85,2.93,18,2.86a116.24,116.24,0,0,1-12.14.69,58.82,58.82,0,0,1-10.2-1.28l-1.1-.21-.09,1.11c0,.16-.13.67-.3.67s-.28-.42-.31-.68l-.09-1.11-1.1.22a69.59,69.59,0,0,1-10.19,1.28,148,148,0,0,1-15.39-.91l-.06,0c14.29,1.3,23.39-2.6,23.39-2.6,3.89-2.6,1.29-6.5,1.29-6.5-1.29-2.59-5.19-5.19-5.19-5.19,0,3.9-6.5,5.19-6.5,5.19l-18.18,3.9c-9.1,2.6-6.5,9.09-6.5,9.09a1.27,1.27,0,0,0,1.3,1.3c1.87-3.74,4-4.78,5.05-5.07l2,1.36c.64.43,16,10.56,31.73,10.56a41.17,41.17,0,0,0,16-3.39A57.31,57.31,0,0,0,826,174.57s2.6-2.6,5.2,2.59a1.27,1.27,0,0,0,1.3-1.3S835.08,169.37,826,166.77Zm-55.46,9.52c-1-.67-1.94-1.33-2.78-1.93,6.2.55,12,.56,12.13.56a63.57,63.57,0,0,0,9.66-1.15,2.15,2.15,0,0,0,4.06,0,58,58,0,0,0,9.66,1.14,120.13,120.13,0,0,0,13.25-.8c-4.37,3-13.13,7.89-23.64,7.89C784.68,182,776.41,179,770.53,176.29Z" transform="translate(-689.52 40.9)"/><path d="M771.43,190.15s19.49,15.59,20.79,19.49c0,0,2.6-5.2,22.08-19.49C814.3,190.15,798.71,191.45,771.43,190.15Z" transform="translate(-689.52 40.9)"/><circle cx="912.91" cy="138.63" r="6.93" transform="translate(-696.95 254.36) rotate(-13.28)"/><ellipse cx="196.24" cy="208.76" rx="5.32" ry="6.93"/><ellipse cx="308.82" cy="208.76" rx="5.32" ry="6.93"/><circle cx="970.72" cy="138.63" r="6.93" transform="translate(-503.23 767.91) rotate(-45)"/><path d="M970.43,169.26c-20-6.14-27.15-.48-27.68,0-.53-.45-7.7-6.11-27.67,0,0,0-9.75,4.44-13.86,11.58,0,0-1.3,1.95,0,5.63a28.67,28.67,0,0,1,7.65-3.08c.36,5.11,2.32,22,12.85,23.43h39.69s15.4,1.86,15.38-23.39a28.48,28.48,0,0,1,7.49,3c1.3-3.68,0-5.63,0-5.63C980.17,173.7,970.43,169.26,970.43,169.26Zm-6.64,32.59H921.72s-5.33,2.47-12.46-18.55c.56-.12,1.12-.22,1.7-.29,0,0,26.52-4.53,31.79-11.86C948,178.48,974.54,183,974.54,183c.61.08,1.22.18,1.8.31C974.87,187.88,969.79,202,963.79,201.85Z" transform="translate(-689.52 40.9)"/></svg>