<svg id="Layer_19" data-name="Layer 19" xmlns="http://www.w3.org/2000/svg" viewBox="0 0 352.64 77.98"><title>logo-text</title><polygon points="100.73 75.59 107.89 75.59 107.89 73.21 103.35 73.21 103.35 68.31 106.96 68.31 106.96 65.92 103.35 65.92 103.35 61.27 107.89 61.27 107.89 58.88 100.73 58.88 100.73 75.59"/><path d="M-22.59,799.59c0-1.2.47-1.65,1.31-1.65s1.31.45,1.31,1.65v.69h2.49v-.53c0-2.67-1.32-4.2-3.87-4.2s-3.87,1.53-3.87,4.2c0,4.78,5.13,5.42,5.13,8.86,0,1.2-.52,1.63-1.36,1.63s-1.36-.43-1.36-1.63v-1.19h-2.48v1c0,2.67,1.34,4.2,3.91,4.2s3.92-1.53,3.92-4.2C-17.46,803.67-22.59,803-22.59,799.59Z" transform="translate(135.4 -736.86)"/><polygon points="119.68 61.27 122.43 61.27 122.43 75.59 125.05 75.59 125.05 61.27 127.8 61.27 127.8 58.88 119.68 58.88 119.68 61.27"/><rect x="128.51" y="73.06" width="2.53" height="2.53"/><path d="M2.47,795.55c-2.58,0-3.92,1.53-3.92,4.2v1.63H1v-1.79c0-1.2.52-1.65,1.36-1.65s1.36.4,1.36,1.91c0,4.82-5.21,5.64-5.21,10.55v2.06h7.6v-2.39h-5a2.17,2.17,0,0,1,0-.36c0-2.74,5.23-4.7,5.23-10C6.39,797.08,5.05,795.55,2.47,795.55Z" transform="translate(135.4 -736.86)"/><path d="M12.78,795.55c-2.57,0-4,1.53-4,4.2v8.7c0,2.67,1.41,4.2,4,4.2s4-1.53,4-4.2v-8.7C16.77,797.08,15.36,795.55,12.78,795.55Zm1.37,13.06c0,1.2-.53,1.65-1.37,1.65s-1.36-.45-1.36-1.65v-9c0-1.2.53-1.65,1.36-1.65s1.37.45,1.37,1.65Z" transform="translate(135.4 -736.86)"/><path d="M19.09,797.84v1.87h2v12.75h2.63V795.74H22A2.61,2.61,0,0,1,19.09,797.84Z" transform="translate(135.4 -736.86)"/><path d="M31.72,800.9a2.5,2.5,0,0,0-2.29,1.22l.22-4h4.56v-2.39H27.28l-.48,9.7h2.49v-.5c0-1.2.52-1.65,1.36-1.65s1.36.45,1.36,1.65v3.67c0,1.2-.53,1.63-1.36,1.63s-1.36-.43-1.36-1.63v-1.55H26.8v1.39c0,2.67,1.34,4.2,3.92,4.2s3.92-1.53,3.92-4.2v-3.73C34.64,802.26,33.66,800.9,31.72,800.9Z" transform="translate(135.4 -736.86)"/><rect x="175.36" y="66.04" width="4.78" height="2.39"/><path d="M52.52,799.59c0-1.2.48-1.65,1.31-1.65s1.32.45,1.32,1.65v.69h2.48v-.53c0-2.67-1.31-4.2-3.87-4.2s-3.87,1.53-3.87,4.2c0,4.78,5.14,5.42,5.14,8.86,0,1.2-.53,1.63-1.36,1.63s-1.36-.43-1.36-1.63v-1.19H49.82v1c0,2.67,1.34,4.2,3.92,4.2s3.92-1.53,3.92-4.2C57.66,803.67,52.52,803,52.52,799.59Z" transform="translate(135.4 -736.86)"/><path d="M62.14,795.74l-2.67,16.72h2.41l.45-3h3.23l.45,3h2.65L66,795.74Zm.53,11.42,1.26-8.46,1.27,8.46Z" transform="translate(135.4 -736.86)"/><polygon points="212.25 68.89 209.55 58.88 206.25 58.88 206.25 75.59 208.62 75.59 208.62 63.49 211.89 75.59 214.59 75.59 214.59 58.88 212.25 58.88 212.25 68.89"/><path d="M88.93,795.74H84.78v16.72h4.15c2.63,0,3.92-1.46,3.92-4.13v-8.46C92.85,797.2,91.56,795.74,88.93,795.74Zm1.29,12.71c0,1.19-.5,1.62-1.34,1.62H87.4V798.13h1.48c.84,0,1.34.43,1.34,1.62Z" transform="translate(135.4 -736.86)"/><rect x="230.92" y="58.88" width="2.63" height="16.72"/><polygon points="236.46 75.59 243.62 75.59 243.62 73.21 239.08 73.21 239.08 68.31 242.69 68.31 242.69 65.92 239.08 65.92 239.08 61.27 243.62 61.27 243.62 58.88 236.46 58.88 236.46 75.59"/><path d="M113.54,795.55c-2.57,0-3.91,1.53-3.91,4.2v8.7c0,2.67,1.34,4.2,3.91,4.2s3.92-1.53,3.92-4.2v-5.31h-3.68v2.39H115v3.08c0,1.2-.53,1.63-1.36,1.63s-1.37-.43-1.37-1.63v-9c0-1.2.53-1.65,1.37-1.65s1.36.45,1.36,1.65v1.79h2.48v-1.63C117.46,797.08,116.12,795.55,113.54,795.55Z" transform="translate(135.4 -736.86)"/><path d="M123.93,795.55c-2.58,0-4,1.53-4,4.2v8.7c0,2.67,1.41,4.2,4,4.2s4-1.53,4-4.2v-8.7C127.92,797.08,126.51,795.55,123.93,795.55Zm1.36,13.06c0,1.2-.53,1.65-1.36,1.65s-1.36-.45-1.36-1.65v-9c0-1.2.52-1.65,1.36-1.65s1.36.45,1.36,1.65Z" transform="translate(135.4 -736.86)"/><polygon points="264.77 75.59 265.78 75.59 265.08 77.98 266.16 77.98 267.3 75.33 267.3 73.06 264.77 73.06 264.77 75.59"/><path d="M141.22,795.55c-2.58,0-3.92,1.53-3.92,4.2v8.7c0,2.67,1.34,4.2,3.92,4.2s3.91-1.53,3.91-4.2v-2.22h-2.48v2.38c0,1.2-.53,1.63-1.36,1.63s-1.36-.43-1.36-1.63v-9c0-1.2.52-1.65,1.36-1.65s1.36.45,1.36,1.65v1.79h2.48v-1.63C145.13,797.08,143.8,795.55,141.22,795.55Z" transform="translate(135.4 -736.86)"/><path d="M149.72,795.74,147,812.46h2.41l.46-3h3.22l.45,3h2.65l-2.67-16.72Zm.52,11.42,1.27-8.46,1.26,8.46Z" transform="translate(135.4 -736.86)"/><rect x="56.57" y="67.46" width="30.7" height="1.71"/><rect x="304.89" y="67.46" width="30.7" height="1.71"/><path d="M-77.09,766.93c0-4.59-1.43-7.87-5.09-9.3,3-1.42,4.4-4.28,4.4-8.74v-1.55c0-6.69-3-10-10.1-10H-98.17v43.4h10.72c6.82,0,10.36-3.6,10.36-10.29Zm-14.26-23.37h3.28c2.42,0,3.47,1.36,3.47,4.46v2.42c0,3.47-1.55,4.59-4.09,4.59h-2.66Zm7.44,26.72c0,3.22-1.24,4.28-3.54,4.28h-3.9V761.23h3c3.1,0,4.41,1.24,4.41,5.27Z" transform="translate(135.4 -736.86)"/><path d="M-65.18,763.09h2.35c3.1,0,4.47,1.49,4.47,5.52v6.81c0,3.54.25,4.22.62,5.34h6.94a12.86,12.86,0,0,1-.74-5.27v-6.7c0-4.52-1.12-7.81-4.53-9.24,3-1.42,4.46-4.34,4.46-8.8v-3.41c0-6.69-3-10-10.1-10H-72v43.4h6.82Zm0-19.53h3.28c2.42,0,3.48,1.36,3.48,4.46v4.28c0,3.47-1.55,4.59-4.1,4.59h-2.66Z" transform="translate(135.4 -736.86)"/><path d="M-28.89,780.76H-22l-6.94-43.4h-10l-7,43.4h6.27l1.17-7.88h8.37ZM-37.57,767l3.29-21.94L-31,767Z" transform="translate(135.4 -736.86)"/><polygon points="138.46 37.69 125.51 37.69 138.46 6.57 138.46 0.5 119.12 0.5 119.12 6.7 131.46 6.7 118.5 37.82 118.5 43.89 138.46 43.89 138.46 37.69"/><rect x="144.49" y="0.5" width="6.82" height="43.4"/><polygon points="164.09 0.5 157.27 0.5 157.27 43.89 175.31 43.89 175.31 37.69 164.09 37.69 164.09 0.5"/><rect x="180.29" y="0.5" width="6.82" height="43.4"/><path d="M63.82,737.36l-7,43.4h6.26l1.18-7.88h8.37l1.18,7.88h6.88l-6.94-43.4ZM65.18,767l3.29-21.94L71.75,767Z" transform="translate(135.4 -736.86)"/><polygon points="241.88 0.5 235.8 0.5 235.8 26.47 228.8 0.5 220.24 0.5 220.24 43.89 226.38 43.89 226.38 12.46 234.87 43.89 241.88 43.89 241.88 0.5"/><path d="M130.6,781.25c6.69,0,10.17-4,10.17-10.91V756.58h-9.55v6.2h3.1v8c0,3.1-1.37,4.21-3.54,4.21s-3.53-1.11-3.53-4.21V747.34c0-3.1,1.36-4.28,3.53-4.28s3.54,1.18,3.54,4.28V752h6.45v-4.22c0-6.94-3.48-10.91-10.17-10.91s-10.17,4-10.17,10.91v22.57C120.43,777.29,123.9,781.25,130.6,781.25Z" transform="translate(135.4 -736.86)"/><path d="M159.74,770.84c0,3.1-1.36,4.21-3.53,4.21s-3.53-1.11-3.53-4.21V737.36h-6.82v33c0,7,3.47,10.91,10.16,10.91s10.17-4,10.17-10.91v-33h-6.45Z" transform="translate(135.4 -736.86)"/><polygon points="314.63 43.89 321.45 43.89 321.45 29.51 330.07 0.5 323.56 0.5 318.35 20.27 313.14 0.5 306.01 0.5 314.63 29.51 314.63 43.89"/><path d="M203.91,747.34c0-3.1,1.24-4.28,3.41-4.28s3.41,1.18,3.41,4.28v1.8h6.45v-1.37c0-6.94-3.41-10.91-10-10.91s-10,4-10,10.91c0,12.4,13.33,14.08,13.33,23,0,3.1-1.36,4.21-3.53,4.21s-3.53-1.11-3.53-4.21v-3.1h-6.45v2.66c0,6.95,3.47,10.91,10.17,10.91s10.16-4,10.16-10.91C217.24,757.94,203.91,756.27,203.91,747.34Z" transform="translate(135.4 -736.86)"/><polygon points="0 2.81 2.47 2.81 2.47 15.71 4.84 15.71 4.84 2.81 7.31 2.81 7.31 0.65 0 0.65 0 2.81"/><polygon points="14.4 7.11 11.71 7.11 11.71 0.65 9.35 0.65 9.35 15.71 11.71 15.71 11.71 9.26 14.4 9.26 14.4 15.71 16.81 15.71 16.81 0.65 14.4 0.65 14.4 7.11"/><polygon points="19.53 15.71 25.99 15.71 25.99 13.56 21.9 13.56 21.9 9.15 25.15 9.15 25.15 7 21.9 7 21.9 2.81 25.99 2.81 25.99 0.65 19.53 0.65 19.53 15.71"/></svg>