<svg id="Layer_20" data-name="Layer 20" xmlns="http://www.w3.org/2000/svg" viewBox="0 0 356.35 356.35"><defs><style>.cls-1{fill:none;}</style></defs><title>logo</title><path class="cls-1" d="M991.56,366.75a9.43,9.43,0,0,0-7.58,0,3.46,3.46,0,0,0-1.5,3.08,1.71,1.71,0,0,1-.27.28c0,.26-.08.52-.14.79,0,0-.13-.22-.41-.6-.14,0-.26-.16-.35-.44-1.9-2.32-7.5-7.66-18.33-6.58,0,0-8.39.68-13.77,1.36l-1.54-10.77s3,.28,4.38-.58a33.33,33.33,0,0,1,3.73-1l-13-.11-11-.31c1.74.53,2.8,1,2.8,1,1.33.94,4.34.83,4.34.83l-2.17,10.67c-5.33-1-13.67-2.17-13.67-2.17-13.66-2.16-19.5,6.5-19.5,6.5a15.47,15.47,0,0,1,2.34-11,16.11,16.11,0,0,1,7.94-6.24,25,25,0,0,0-9.11,2s-2.44,2-2,7.66V371s-1.86-5-6.7-5.34c0,0-6.66-.5-7.83,5.34a24.56,24.56,0,0,0,4.33,12s1.5,7.5,0,9.83c0,0-.13,10.17,6.1,9,0,0,3.07-.17,3.4-3,0,0,1.17-1.65,2,3.09,0,0,.34,9.41,3,10.41,0,0,.5,2.33,4.34,3.33,0,0,7.33,2.67,10.5,14.34,0,0,1.83,9.5,6.83,7.5,0,0,3.83-1.17,5.33-6.17,0,0,0-2.83-1.83-3.5,0,0-1.83-2.17.5-2.17H950.4a1.54,1.54,0,0,1,0,2.67s-2.37,1.33.81,5.83c0,0,5.69,7.5,8.35-.5,0,0,7.63-17,13.63-19s6.46-9.62,6.46-9.62v-6.21s1-1,2,.83a4.66,4.66,0,0,0,4.5,2.63s4.33.37,4.71-6.67V386s2.7-7.92,3.54-11.42S995.31,368.58,991.56,366.75Zm-92.9,32.08c-2.26,0-4.1-2.39-4.1-5.33s1.84-5.34,4.1-5.34,4.1,2.39,4.1,5.34S900.93,398.83,898.66,398.83Zm65.4-33.17a5.34,5.34,0,1,1-5.33,5.34A5.34,5.34,0,0,1,964.06,365.66Zm-44.5,0a5.34,5.34,0,1,1-5.33,5.34A5.34,5.34,0,0,1,919.56,365.66Zm55,42.17a22.11,22.11,0,0,0-5.77-2.34c0,19.44-11.84,18-11.84,18H926.34c-8.1-1.13-9.61-14.11-9.88-18a22,22,0,0,0-5.9,2.37c-1-2.83,0-4.33,0-4.33,3.17-5.5,10.67-8.92,10.67-8.92,15.38-4.73,20.9-.37,21.31,0,.4-.34,5.93-4.7,21.3,0,0,0,7.5,3.42,10.67,8.92C974.51,403.5,975.51,405,974.51,407.83Zm10.82-9c-2.26,0-4.1-2.39-4.1-5.33s1.84-5.34,4.1-5.34,4.1,2.39,4.1,5.34S987.59,398.83,985.33,398.83Z" transform="translate(-689.25 -239.66)"/><path class="cls-1" d="M1013.68,332.43c-21-9.5-70.88-6.65-70.88-6.65-16,0-42.92,5.7-42.92,5.7-7,.95-8,5.7-8,5.7-2,4.75,0,11.4,0,11.4,2,2.85,6,1.9,6,1.9,59.89-5.7,95.82,1.9,95.82,1.9,1,0,2-1.9,2-1.9l18-15.2C1015.67,333.38,1013.68,332.43,1013.68,332.43Z" transform="translate(-689.25 -239.66)"/><path class="cls-1" d="M894.89,329.58c60.89-12.35,98.82-4.75,98.82-4.75,2,0,2-.95,2-.95a33.21,33.21,0,0,0-3-12.35s-5-6.65-41.92-15.2c0,0-3-.95-3,4.75a1.89,1.89,0,0,1-2,1.9,1.93,1.93,0,0,1-2-1.9s0-4.75-2-4.75c0,0-13-.95-42.93,13.3a84.39,84.39,0,0,0-5,17.1S892.89,329.58,894.89,329.58Z" transform="translate(-689.25 -239.66)"/><ellipse cx="296.08" cy="153.84" rx="4.1" ry="5.33"/><ellipse cx="209.41" cy="153.84" rx="4.1" ry="5.33"/><path d="M963.84,394.58c-15.37-4.73-20.9-.37-21.3,0-.41-.34-5.93-4.7-21.31,0,0,0-7.5,3.42-10.67,8.92,0,0-1,1.5,0,4.33a22,22,0,0,1,5.9-2.37c.27,3.93,1.78,16.91,9.88,18H956.9s11.85,1.43,11.84-18a22.11,22.11,0,0,1,5.77,2.34c1-2.83,0-4.33,0-4.33C971.34,398,963.84,394.58,963.84,394.58Zm-5.11,25.08H926.34s-4.1,1.91-9.59-14.27c.43-.09.87-.17,1.31-.23,0,0,20.42-3.48,24.48-9.13,4.06,5.65,24.47,9.13,24.47,9.13.47.06.93.15,1.39.25C967.26,408.91,963.35,419.8,958.73,419.66Z" transform="translate(-689.25 -239.66)"/><circle cx="230.31" cy="131.34" r="5.33"/><circle cx="274.81" cy="131.34" r="5.33"/><circle cx="87.31" cy="127.01" r="4"/><circle cx="126.31" cy="127.01" r="4"/><path d="M820.56,392.66l-14-3s-5-1-5-4c0,0-3,2-4,4,0,0-2,3,1,5a36.12,36.12,0,0,0,11.82,2.17c-2.11.18-4.64.33-7.31.33a44.36,44.36,0,0,1-7.81-1l-1.09-.2-.1,1.11a0,0,0,0,1,0,0v0L794,396l-1.1.22a53.22,53.22,0,0,1-7.81,1s-3.6,0-7.69-.3c8.55.05,13.81-2.2,13.81-2.2,3-2,1-5,1-5-1-2-4-4-4-4,0,3-5,4-5,4l-14,3c-7,2-5,7-5,7a1,1,0,0,0,1,1c1.29-2.58,2.74-3.49,3.6-3.81l1.73,1.15c.5.33,12.39,8.16,24.55,8.16a32.12,32.12,0,0,0,13.31-3,42.73,42.73,0,0,0,12.19-4.46s2-2,4,2a1,1,0,0,0,1-1S827.56,394.66,820.56,392.66Zm-43.94,6.48-.51-.37c4.56.39,8.72.39,8.95.39a48.15,48.15,0,0,0,7.31-.85,1.87,1.87,0,0,0,3.39,0,44.43,44.43,0,0,0,7.3.84,91,91,0,0,0,9.28-.5c-3.53,2.28-9.83,5.5-17.28,5.5C788.15,404.16,781.15,401.38,776.62,399.14Z" transform="translate(-689.25 -239.66)"/><path d="M778.56,410.66s15,12,16,15c0,0,2-4,17-15C811.56,410.66,799.56,411.66,778.56,410.66Z" transform="translate(-689.25 -239.66)"/><path d="M828.3,528.94c-.69,0-1.12.38-1.12,1.37v7.47c0,1,.43,1.37,1.12,1.37s1.13-.38,1.13-1.37v-7.47C829.43,529.32,829,528.94,828.3,528.94Z" transform="translate(-689.25 -239.66)"/><polygon points="97.35 261.46 102.79 261.46 100.07 239.93 97.35 261.46"/><polygon points="182.45 261.46 187.9 261.46 185.18 239.93 182.45 261.46"/><polygon points="180.37 296.92 182.47 296.92 181.42 289.92 180.37 296.92"/><path d="M766.45,478.12h-2.73V491.2h2.21c2.11,0,3.39-1.09,3.39-4.5v-4.2C769.32,479.46,768.45,478.12,766.45,478.12Z" transform="translate(-689.25 -239.66)"/><path d="M744.56,495.46h-2.51v13.08h3.23c1.9,0,2.93-1,2.93-4.2v-3.71C748.21,496.68,747.13,495.46,744.56,495.46Z" transform="translate(-689.25 -239.66)"/><path d="M891.34,529.1h-1.23V539h1.23c.69,0,1.1-.35,1.1-1.34v-7.2C892.44,529.46,892,529.1,891.34,529.1Z" transform="translate(-689.25 -239.66)"/><path d="M747.64,484.88V482.5c0-3-.87-4.38-2.87-4.38h-2.72v11.26h2.21C746.36,489.38,747.64,488.28,747.64,484.88Z" transform="translate(-689.25 -239.66)"/><path d="M867.42,239.66A178.17,178.17,0,1,0,1045.6,417.83,178.17,178.17,0,0,0,867.42,239.66Zm26.47,87.07a84.39,84.39,0,0,1,5-17.1c30-14.25,42.93-13.3,42.93-13.3,2,0,2,4.75,2,4.75a1.93,1.93,0,0,0,2,1.9,1.89,1.89,0,0,0,2-1.9c0-5.7,3-4.75,3-4.75,36.93,8.55,41.92,15.2,41.92,15.2a33.21,33.21,0,0,1,3,12.35s0,.95-2,.95c0,0-37.93-7.6-98.82,4.75C892.89,329.58,893.89,326.73,893.89,326.73Zm-16.3,106.93H888.8v3.74h-7.1v7.29h5.64v3.74H881.7v7.66h7.1v3.73H877.59Zm-17.7,0H864v11.21h4.67V433.66h4.19v26.16h-4.19V448.61H864v11.21h-4.11Zm-16.24,3.74v-3.74h12.71v3.74h-4.3v22.42H848V437.4ZM743.56,313.66s5-7,42-16c0,0,3-1,3,5a2,2,0,1,0,4,0s0-5,2-5c0,0,13-1,43,14a91.82,91.82,0,0,1,5,18s1,3-1,3c-61-13-99-5-99-5-2,0-2-1-2-1A36.53,36.53,0,0,1,743.56,313.66Zm-21,22c21-10,71-7,71-7,16,0,43,6,43,6,7,1,8,6,8,6,2,5,0,12,0,12-2,3-6,2-6,2-60-6-96,2-96,2-1,0-2-2-2-2l-18-16C720.56,336.66,722.56,335.66,722.56,335.66Zm111.69,26.15c-1.36-2.1-6.69-5.15-6.69-5.15l-.47-.18,3.47.18S833.31,356.68,834.25,361.81Zm-89,152.82H736.4V472h8.52c5.86,0,8.37,3.22,8.37,9.79v1.52c0,4.39-1.13,7.18-3.64,8.58,3,1.4,4.21,4.63,4.21,9.13v3.47C753.86,511.1,750.93,514.63,745.28,514.63Zm32.57,21H752.42v-1.41h25.43ZM775,502.88v6.57a14.63,14.63,0,0,0,.62,5.18h-5.75c-.31-1.1-.52-1.77-.52-5.24V502.7c0-3.95-1.13-5.41-3.69-5.41h-2v17.34h-5.64V472h8.52c5.85,0,8.37,3.22,8.37,9.79v3.35c0,4.38-1.18,7.24-3.7,8.64C774.1,495.22,775,498.44,775,502.88Zm-20.46-91.22s-1-1-1-5v-19s0-3-2,0c0,0,0,3-2,3,0,0-2,0-2-3a64.54,64.54,0,0,1-2-16s-1-2,2-2c0,0,2,0,2,3,0,0,0,5,3,8,0,0,2,1,2-3v-19s3.23-.7,10-1.41c-1.91,1.17-6,3.88-6,5.41a43.54,43.54,0,0,1,25-2s3,1,4,0c0,0-5-2-5-3a17.75,17.75,0,0,0-3.42-1.5c9.09-.45,20.83-.65,35.44-.2a18.63,18.63,0,0,0-4,1.7c0,1-5,3-5,3,1,1,4,0,4,0a43.91,43.91,0,0,1,24.81,1.92,23.09,23.09,0,0,1,.19,3.08v10s0,2,3,2,3-2,3-2v-4s1-6,5-2c0,0,1,11-3,19,0,0,0,4-4,0,0,0-2-3-2,0v20a3.53,3.53,0,0,1-1,4s-18,23-26,28c0,0-1,2-9,3,0,0-5,0-6-1a1.39,1.39,0,0,0-2,0s-1,1-5,1a13.87,13.87,0,0,1-9-4S756.56,417.66,754.56,411.66ZM830.9,472v42.59h-5.65V472Zm-46,42.59h-5.18L785.47,472h8.26l5.76,42.59h-5.7l-1-7.73h-6.93Zm10,14.47h-3.76V533h3v2h-3v4h3.76v2H789V527.12h5.94Zm5.08,12c-2.14,0-3.24-1.27-3.24-3.48v-.85h2.05v1c0,1,.44,1.35,1.13,1.35s1.13-.36,1.13-1.35c0-2.84-4.26-3.38-4.26-7.33,0-2.22,1.09-3.49,3.21-3.49s3.2,1.27,3.2,3.49v.43h-2.05v-.57c0-1-.4-1.37-1.09-1.37s-1.09.38-1.09,1.37c0,2.85,4.25,3.38,4.25,7.34C803.25,539.86,802.15,541.13,800,541.13Zm3.71-32.47,10.73-30.54H804.23V472h16v6l-10.73,30.54h10.73v6.09H803.72Zm7.7,20.44h-2.28V541H807V529.1h-2.28v-2h6.73ZM814.11,541H812v-2.1h2.1Zm4.58-2h4.12v2h-6.29v-1.7c0-4.08,4.31-4.75,4.31-8.74,0-1.25-.44-1.59-1.13-1.59s-1.13.38-1.13,1.37v1.48h-2.05v-1.34c0-2.22,1.1-3.49,3.24-3.49s3.24,1.27,3.24,3.49c0,4.35-4.33,6-4.33,8.24A1.51,1.51,0,0,0,818.69,539Zm12.92-1.34c0,2.21-1.17,3.48-3.31,3.48s-3.3-1.27-3.3-3.48v-7.2c0-2.22,1.17-3.49,3.3-3.49s3.31,1.27,3.31,3.49Zm5.77,3.32h-2.17V530.41h-1.68v-1.55a2.15,2.15,0,0,0,2.39-1.74h1.46Zm9-3.32c0,2.21-1.1,3.48-3.24,3.48s-3.24-1.27-3.24-3.48V536.5H842v1.28c0,1,.44,1.35,1.13,1.35s1.13-.36,1.13-1.35v-3c0-1-.44-1.37-1.13-1.37s-1.13.38-1.13,1.37v.41h-2.05l.39-8h5.74v2h-3.78l-.18,3.3a2.08,2.08,0,0,1,1.9-1c1.6,0,2.41,1.12,2.41,3.16Zm4.38-23H835.83V472h5.65v36.5h9.3Zm4,20.41h-4v-2h4Zm.13-63h5.65v42.59H854.9Zm7.33,69.09c-2.14,0-3.25-1.27-3.25-3.48v-.85H861v1c0,1,.43,1.35,1.13,1.35s1.12-.36,1.12-1.35c0-2.84-4.25-3.38-4.25-7.33,0-2.22,1.09-3.49,3.21-3.49s3.2,1.27,3.2,3.49v.43h-2.06v-.57c0-1-.39-1.37-1.09-1.37s-1.08.38-1.08,1.37c0,2.85,4.25,3.38,4.25,7.34C865.47,539.86,864.36,541.13,862.23,541.13Zm10.16-.16-.38-2.51h-2.67L869,541h-2l2.21-13.85h3.19L874.59,541Zm10.92,0h-2.24l-2.71-10v10h-2V527.12h2.73l2.24,8.29v-8.29h1.94Zm-4.42-26.34-1-7.73H871l-1,7.73h-5.19L870.57,472h8.27l5.75,42.59Zm15.73,22.92c0,2.21-1.07,3.42-3.25,3.42h-3.44V527.12h3.44c2.18,0,3.25,1.21,3.25,3.42ZM899,541h-2.18V527.12H899Zm-5.94-57.19v30.85H888V472h7.08l5.81,25.49V472h5v42.59h-5.8Zm14.28,45.32h-3.76V533h3v2h-3v4h3.76v2h-5.93V527.12h5.93Zm7.66,2.69H913v-1.48c0-1-.44-1.37-1.13-1.37s-1.13.38-1.13,1.37v7.47c0,1,.44,1.35,1.13,1.35s1.13-.36,1.13-1.35v-2.55h-1v-2h3v4.4c0,2.21-1.11,3.48-3.25,3.48s-3.24-1.27-3.24-3.48v-7.2c0-2.22,1.11-3.49,3.24-3.49s3.25,1.27,3.25,3.49Zm8.66,5.86c0,2.21-1.17,3.48-3.31,3.48s-3.3-1.27-3.3-3.48v-7.2c0-2.22,1.17-3.49,3.3-3.49s3.31,1.27,3.31,3.49Zm2.37-60c-1.8,0-2.93,1.15-2.93,4.19v23c0,3,1.13,4.14,2.93,4.14s2.93-1.1,2.93-4.14V497H926.4V490.9h7.91v13.51c0,6.81-2.88,10.7-8.42,10.7s-8.42-3.89-8.42-10.7V482.26c0-6.81,2.87-10.71,8.42-10.71s8.42,3.9,8.42,10.71v4.14H929v-4.57C929,478.79,927.84,477.64,926,477.64Zm.93,63.11-1,2.2h-.89l.57-2h-.83v-2.1H927Zm11-9h-2.06v-1.48c0-1-.44-1.37-1.13-1.37s-1.12.38-1.12,1.37v7.47c0,1,.43,1.35,1.12,1.35s1.13-.36,1.13-1.35v-2h2.06v1.84c0,2.21-1.11,3.48-3.25,3.48s-3.24-1.27-3.24-3.48v-7.2c0-2.22,1.11-3.49,3.24-3.49s3.25,1.27,3.25,3.49Zm7,9.18-.38-2.51h-2.67L941.5,541h-2l2.21-13.85h3.19L947.12,541Zm10.44-36.5c0,6.81-2.88,10.7-8.42,10.7s-8.42-3.89-8.42-10.7V472h5.64v32.85c0,3,1.13,4.14,2.93,4.14s2.93-1.1,2.93-4.14V472h5.34Zm-4.16-70.31c-3.18-4.5-.81-5.83-.81-5.83a1.54,1.54,0,0,0,0-2.67H932.73c-2.33,0-.5,2.17-.5,2.17,1.83.67,1.83,3.5,1.83,3.5-1.5,5-5.33,6.17-5.33,6.17-5,2-6.83-7.5-6.83-7.5-3.17-11.67-10.5-14.34-10.5-14.34-3.84-1-4.34-3.33-4.34-3.33-2.66-1-3-10.41-3-10.41-.83-4.74-2-3.09-2-3.09-.33,2.83-3.4,3-3.4,3-6.23,1.17-6.1-9-6.1-9,1.5-2.33,0-9.83,0-9.83a24.56,24.56,0,0,1-4.33-12c1.17-5.84,7.83-5.34,7.83-5.34,4.84.34,6.7,5.34,6.7,5.34v-9.84c-.47-5.66,2-7.66,2-7.66a25,25,0,0,1,9.11-2,16.11,16.11,0,0,0-7.94,6.24,15.47,15.47,0,0,0-2.34,11s5.84-8.66,19.5-6.5c0,0,8.34,1.17,13.67,2.17l2.17-10.67s-3,.11-4.34-.83c0,0-1.06-.45-2.8-1l11,.31,13,.11a33.33,33.33,0,0,0-3.73,1c-1.38.86-4.38.58-4.38.58l1.54,10.77c5.38-.68,13.77-1.36,13.77-1.36,10.83-1.08,16.43,4.26,18.33,6.58.09.28.21.41.35.44.28.38.41.6.41.6.06-.27.1-.53.14-.79a1.71,1.71,0,0,0,.27-.28,3.46,3.46,0,0,1,1.5-3.08,9.43,9.43,0,0,1,7.58,0c3.75,1.83,3.67,4.33,2.84,7.83S990.86,386,990.86,386v9.62c-.38,7-4.71,6.67-4.71,6.67a4.66,4.66,0,0,1-4.5-2.63c-1-1.79-2-.83-2-.83V405s-.46,7.67-6.46,9.62-13.63,19-13.63,19C956.9,441.66,951.21,434.16,951.21,434.16Zm19.6-81.76h2.25c8.34.84,8.17,3.42,8.17,3.42v5.7a11.81,11.81,0,0,0-.85-1.7A16.38,16.38,0,0,0,970.81,352.4ZM959,472h5.91l4.31,19.41L973.56,472H979l-7.13,28.47v14.12h-5.65V500.51Zm24.5,63.6H958.1v-1.41h25.43Zm5.7-20.53c-5.54,0-8.42-3.89-8.42-10.7v-2.62h5.34v3c0,3,1.13,4.14,2.93,4.14s2.93-1.1,2.93-4.14c0-8.76-11-10.4-11-22.57,0-6.81,2.83-10.71,8.32-10.71s8.32,3.9,8.32,10.71v1.34h-5.34v-1.77c0-3-1-4.19-2.82-4.19s-2.83,1.15-2.83,4.19c0,8.76,11,10.41,11,22.58C997.65,511.22,994.78,515.11,989.23,515.11Zm6.48-164.63s-1,1.9-2,1.9c0,0-35.93-7.6-95.82-1.9,0,0-4,.95-6-1.9,0,0-2-6.65,0-11.4,0,0,1-4.75,8-5.7,0,0,27-5.7,42.92-5.7,0,0,49.91-2.85,70.88,6.65,0,0,2,.95,0,2.85Z" transform="translate(-689.25 -239.66)"/><polygon points="252.91 296.92 255 296.92 253.96 289.92 252.91 296.92"/><path d="M920.36,528.94c-.69,0-1.12.38-1.12,1.37v7.47c0,1,.43,1.37,1.12,1.37s1.13-.38,1.13-1.37v-7.47C921.49,529.32,921.06,528.94,920.36,528.94Z" transform="translate(-689.25 -239.66)"/></svg>